/* XPM */
static char * fraktale_icon_xpm[] = {
"32 32 441 2",
"  	c None",
". 	c #A6C2D4",
"+ 	c #96B2C6",
"@ 	c #BADAEC",
"# 	c #94A7BE",
"$ 	c #9FB0C7",
"% 	c #AFD1E4",
"& 	c #80A4BD",
"* 	c #96ACC5",
"= 	c #98B0CC",
"- 	c #7698B3",
"; 	c #8DA6BD",
"> 	c #B8CCE5",
", 	c #B2CFF1",
"' 	c #A4C3EC",
") 	c #A7C2EA",
"! 	c #859FC1",
"~ 	c #A1C7DD",
"{ 	c #8CA8BF",
"] 	c #C7DCF4",
"^ 	c #B0CEF1",
"/ 	c #9CBEE8",
"( 	c #89AEE1",
"_ 	c #84AAE4",
": 	c #95B7EC",
"< 	c #7290B4",
"[ 	c #94ADC6",
"} 	c #BBD6F6",
"| 	c #9CBDE7",
"1 	c #90B5E6",
"2 	c #7BA3DE",
"3 	c #6C97DB",
"4 	c #78A0E1",
"5 	c #6C87B1",
"6 	c #9BBFD4",
"7 	c #A9CBDE",
"8 	c #8EA4BD",
"9 	c #B3D0F4",
"0 	c #97BAE7",
"a 	c #86ACE1",
"b 	c #749EDD",
"c 	c #6290D9",
"d 	c #6992D5",
"e 	c #6580AD",
"f 	c #9ABED4",
"g 	c #92ADC5",
"h 	c #BCD6F6",
"i 	c #9CBEEA",
"j 	c #85ACE2",
"k 	c #6C96D8",
"l 	c #628ED7",
"m 	c #6F95D2",
"n 	c #607AA4",
"o 	c #9FC2D7",
"p 	c #8AAEC7",
"q 	c #B1C5E1",
"r 	c #A9C8F2",
"s 	c #89AFE4",
"t 	c #6F99D8",
"u 	c #6D98DB",
"v 	c #7998CD",
"w 	c #6686A7",
"x 	c #A9DAF3",
"y 	c #7CA4C1",
"z 	c #8EAACD",
"A 	c #8BADDD",
"B 	c #7CA2DC",
"C 	c #678AC1",
"D 	c #6287AC",
"E 	c #96C9E4",
"F 	c #8ABAD6",
"G 	c #719DB9",
"H 	c #6181A0",
"I 	c #7491B9",
"J 	c #7495C3",
"K 	c #52739A",
"L 	c #6A95B7",
"M 	c #81B1CF",
"N 	c #8DAEC6",
"O 	c #A3B9D0",
"P 	c #AEC3DF",
"Q 	c #A5C2E6",
"R 	c #98BAE7",
"S 	c #88ADE1",
"T 	c #85AAE3",
"U 	c #83A6DD",
"V 	c #7E9CCC",
"W 	c #708EB4",
"X 	c #7DA3BF",
"Y 	c #88AAC1",
"Z 	c #ABC2D7",
"` 	c #C2D6ED",
" .	c #BCD7F6",
"..	c #AFCDF2",
"+.	c #9ABCE8",
"@.	c #89AEE0",
"#.	c #7DA4DD",
"$.	c #79A1E0",
"%.	c #729CDE",
"&.	c #76A0E1",
"*.	c #85ACE7",
"=.	c #83A2D1",
"-.	c #7FA2C2",
";.	c #ABD0E5",
">.	c #81A5BD",
",.	c #B7C9DE",
"'.	c #C6DEF9",
").	c #B2D0F0",
"!.	c #A6C6EC",
"~.	c #9DC0EB",
"{.	c #8BB0E2",
"].	c #81A9E1",
"^.	c #759EDC",
"/.	c #6995D7",
"(.	c #628ED4",
"_.	c #5E8BD4",
":.	c #5E8BD3",
"<.	c #76A1E2",
"[.	c #8FB1E7",
"}.	c #6F8EB4",
"|.	c #93BCD3",
"1.	c #95B6CD",
"2.	c #7894AA",
"3.	c #91A4B8",
"4.	c #B5CAE0",
"5.	c #BED9F6",
"6.	c #AECDEF",
"7.	c #A5C6EC",
"8.	c #9CBEE9",
"9.	c #91B5E5",
"0.	c #84ABE2",
"a.	c #7AA3DE",
"b.	c #739EDE",
"c.	c #6591D5",
"d.	c #618DD4",
"e.	c #5F8DD7",
"f.	c #5B89D5",
"g.	c #618FD9",
"h.	c #6995DC",
"i.	c #7DA2DC",
"j.	c #7693BB",
"k.	c #607F9D",
"l.	c #CCE6F3",
"m.	c #96BFD6",
"n.	c #A7BCD3",
"o.	c #C2DCF9",
"p.	c #ABCAED",
"q.	c #A3C4EB",
"r.	c #9EC1EA",
"s.	c #95B8E7",
"t.	c #88AEE2",
"u.	c #7FA7E1",
"v.	c #6D97D9",
"w.	c #6995D9",
"x.	c #6A96DC",
"y.	c #6693DD",
"z.	c #5A88D5",
"A.	c #4F7FCE",
"B.	c #5281D0",
"C.	c #6590D6",
"D.	c #7B9CD2",
"E.	c #7196B4",
"F.	c #C8E8F8",
"G.	c #7C98B1",
"H.	c #BED5F0",
"I.	c #AECCEF",
"J.	c #A2C3EB",
"K.	c #9DBFEA",
"L.	c #89AFE1",
"M.	c #7CA4DC",
"N.	c #78A2E0",
"O.	c #6F9ADB",
"P.	c #6793D7",
"Q.	c #6894D9",
"R.	c #6793DA",
"S.	c #628FD9",
"T.	c #5382CF",
"U.	c #4D7DCE",
"V.	c #4A7BCC",
"W.	c #537FCA",
"X.	c #6A90CF",
"Y.	c #6C8BB5",
"Z.	c #AAD4EA",
"`.	c #A7D3E9",
" +	c #9EB6D0",
".+	c #B4D0F2",
"++	c #9DBFE7",
"@+	c #97BBE8",
"#+	c #94B8E8",
"$+	c #8AB0E3",
"%+	c #7DA5DE",
"&+	c #709AD8",
"*+	c #6994D8",
"=+	c #5E8BD2",
"-+	c #5784CE",
";+	c #5E8CD5",
">+	c #5D8BD5",
",+	c #5886D4",
"'+	c #4C7CCD",
")+	c #4A7ACC",
"!+	c #4877C8",
"~+	c #4773BF",
"{+	c #5178BB",
"]+	c #617EB0",
"^+	c #648AA8",
"/+	c #A9D1E6",
"(+	c #7BA9C5",
"_+	c #9DB7D6",
":+	c #A1C2EB",
"<+	c #94B7E7",
"[+	c #8AAFE3",
"}+	c #81A8DF",
"|+	c #79A2DE",
"1+	c #6E98DA",
"2+	c #608DD5",
"3+	c #5987D4",
"4+	c #5483D1",
"5+	c #4F7FD0",
"6+	c #5080D0",
"7+	c #4D7ED0",
"8+	c #4373C5",
"9+	c #3F6EBE",
"0+	c #3E6AB8",
"a+	c #3F69B4",
"b+	c #446AAD",
"c+	c #5270AA",
"d+	c #577BA1",
"e+	c #97C6DE",
"f+	c #9BBDD3",
"g+	c #85A1B9",
"h+	c #8AA1BC",
"i+	c #577290",
"j+	c #97B6DF",
"k+	c #91B5E7",
"l+	c #80A7DE",
"m+	c #79A2DC",
"n+	c #6A95D8",
"o+	c #618ED7",
"p+	c #5585D3",
"q+	c #5182D3",
"r+	c #4E7FD1",
"s+	c #4C7DD0",
"t+	c #4778CA",
"u+	c #4373C4",
"v+	c #406EBD",
"w+	c #406CBA",
"x+	c #3963AE",
"y+	c #375EA6",
"z+	c #385C9E",
"A+	c #3F5E9A",
"B+	c #41608C",
"C+	c #4A688D",
"D+	c #576A91",
"E+	c #81A0BA",
"F+	c #A3C1D4",
"G+	c #BBCFEA",
"H+	c #C4DEFF",
"I+	c #90ADD7",
"J+	c #85AADE",
"K+	c #7AA2DE",
"L+	c #6994D6",
"M+	c #6793D8",
"N+	c #5181D1",
"O+	c #4B7CCE",
"P+	c #4878CA",
"Q+	c #4B7ACC",
"R+	c #4675C7",
"S+	c #4271C1",
"T+	c #3F6CBA",
"U+	c #3F68B6",
"V+	c #3962AC",
"W+	c #32579E",
"X+	c #2F5195",
"Y+	c #2D4C8B",
"Z+	c #2C4982",
"`+	c #30497D",
" @	c #445C8B",
".@	c #5C74A1",
"+@	c #516B90",
"@@	c #DBEEF7",
"#@	c #88A0C0",
"$@	c #98B1D4",
"%@	c #537194",
"&@	c #7298D1",
"*@	c #5C8BD8",
"=@	c #4A7ACB",
"-@	c #4574C6",
";@	c #4472C3",
">@	c #4470BE",
",@	c #416DBA",
"'@	c #406BB8",
")@	c #3B66B3",
"!@	c #3A65B2",
"~@	c #3C67B3",
"{@	c #3860AA",
"]@	c #355AA2",
"^@	c #305398",
"/@	c #284889",
"(@	c #223E7C",
"_@	c #1E3871",
":@	c #20376D",
"<@	c #2B4771",
"[@	c #426286",
"}@	c #394F75",
"|@	c #82A2BB",
"1@	c #8FB8D0",
"2@	c #6995B2",
"3@	c #6E8FC4",
"4@	c #5F89D0",
"5@	c #4E7BC8",
"6@	c #406CBB",
"7@	c #3C66B2",
"8@	c #365EA9",
"9@	c #345BA3",
"0@	c #345AA1",
"a@	c #365CA3",
"b@	c #355AA1",
"c@	c #32589F",
"d@	c #32579D",
"e@	c #2E5194",
"f@	c #23417F",
"g@	c #1C3772",
"h@	c #172F67",
"i@	c #193065",
"j@	c #1F3568",
"k@	c #3E5F84",
"l@	c #AAD9F0",
"m@	c #BDDDEE",
"n@	c #A3D0E7",
"o@	c #6E8CB7",
"p@	c #6589C7",
"q@	c #436BB1",
"r@	c #355DA6",
"s@	c #345AA2",
"t@	c #3459A0",
"u@	c #2E5297",
"v@	c #2A4C8F",
"w@	c #294A8C",
"x@	c #2A4A8C",
"y@	c #2A4A8B",
"z@	c #29498C",
"A@	c #264586",
"B@	c #234180",
"C@	c #1C3873",
"D@	c #18316B",
"E@	c #172E67",
"F@	c #162E64",
"G@	c #1D3569",
"H@	c #233868",
"I@	c #517392",
"J@	c #B9DCEE",
"K@	c #5A7799",
"L@	c #6684B9",
"M@	c #4669A9",
"N@	c #315498",
"O@	c #2B4C8F",
"P@	c #2B4C8E",
"Q@	c #233F7E",
"R@	c #203C79",
"S@	c #1E3A76",
"T@	c #1F3B77",
"U@	c #1B3570",
"V@	c #162F68",
"W@	c #142B63",
"X@	c #162D65",
"Y@	c #182F68",
"Z@	c #1A3167",
"`@	c #22396D",
" #	c #263F69",
".#	c #A2CBE2",
"+#	c #55759D",
"@#	c #49679F",
"##	c #32518E",
"$#	c #254380",
"%#	c #213D7A",
"&#	c #1A336C",
"*#	c #193168",
"=#	c #1A3269",
"-#	c #1C346B",
";#	c #172F66",
">#	c #162E66",
",#	c #162E65",
"'#	c #1A3268",
")#	c #1F376B",
"!#	c #223866",
"~#	c #719AB6",
"{#	c #C7E6F6",
"]#	c #5A7B9C",
"^#	c #445A87",
"/#	c #354F84",
"(#	c #284279",
"_#	c #1E376E",
":#	c #1B3369",
"<#	c #1D356B",
"[#	c #1E3465",
"}#	c #172C5A",
"|#	c #21386C",
"1#	c #1F366C",
"2#	c #1C346A",
"3#	c #1E366C",
"4#	c #21376B",
"5#	c #203563",
"6#	c #21355E",
"7#	c #7DA2BB",
"8#	c #567192",
"9#	c #6183A2",
"0#	c #426085",
"a#	c #253A67",
"b#	c #223769",
"c#	c #23396B",
"d#	c #253B6C",
"e#	c #213563",
"f#	c #416487",
"g#	c #5883A1",
"h#	c #263D68",
"i#	c #223665",
"j#	c #243B6D",
"k#	c #23386A",
"l#	c #253B6B",
"m#	c #28416A",
"n#	c #668CA8",
"o#	c #4A6788",
"p#	c #849BB0",
"q#	c #6B8FAA",
"r#	c #466486",
"s#	c #405D82",
"t#	c #446183",
"u#	c #6A8DA9",
"v#	c #C5E5F5",
"w#	c #C9ECFD",
"x#	c #9CC5DC",
"y#	c #5C7E9C",
"z#	c #415C81",
"A#	c #496889",
"B#	c #2A4565",
"C#	c #87ADC6",
"D#	c #D2F0FF",
"E#	c #D8EEFA",
"F#	c #C9E7F6",
"G#	c #DCF2FC",
"H#	c #C6E3F1",
"                                                                ",
"                              . +                               ",
"                            @ # $ %                             ",
"                            & * = -                             ",
"                          ; > , ' ) ! ~                         ",
"                        { ] ^ / ( _ : <                         ",
"                      @ [ } | 1 2 3 4 5 6                       ",
"                      7 8 9 0 a b c d e f                       ",
"                        g h i j k l m n o                       ",
"                        p q r s t u v w                         ",
"                        x y z A B C D E                         ",
"                        F G H I J K L M                         ",
"                      N O P Q R S T U V W X                     ",
"                  Y Z `  ...+.@.#.$.%.&.*.=.-.                  ",
"              ;.>.,.'.).!.~.{.].^./.(._.:.<.[.}.|.1.            ",
"            2.3.4.5.6.7.8.9.0.a.b.c.d.e.f.g.h.i.j.k.l.          ",
"            m.n.o.p.q.r.s.t.u.^.v.w.x.y.z.A.B.C.D.E.F.          ",
"            G.H.I.J.K.s.L.M.N.O.P.Q.R.S.T.U.V.W.X.Y.Z.          ",
"          `. +.+++@+#+$+%+&+*+=+-+;+>+,+'+)+!+~+{+]+^+          ",
"        /+(+_+:+<+[+}+|+1+2+3+4+5+6+5+7+8+9+0+a+b+c+d+e+f+      ",
"      g+h+i+j+k+l+m+t n+o+p+q+r+s+s+t+u+v+w+x+y+z+A+B+C+D+E+    ",
"    F+G+H+I+J+K+L+M+o+f.N+O+)+P+Q+R+S+T+U+V+W+X+Y+Z+`+ @.@+@@@  ",
"      #@$@%@&@h.*@5+=@-@;@>@,@'@)@!@~@{@]@^@/@(@_@:@<@[@}@|@    ",
"        1@2@3@4@5@6@)@7@8@9@0@a@b@c@d@e@/@f@g@h@i@j@k@l@m@      ",
"          n@o@p@q@r@s@t@u@v@w@x@y@z@A@B@C@D@E@F@G@H@I@          ",
"          J@K@L@M@N@O@P@A@Q@R@S@T@S@U@V@W@X@Y@Z@`@ #            ",
"            .#+#@###$#%#g@&#*#=#-#=#;#>#X@,#'#)#!#~#            ",
"            {#]#^#/#(#_#:#<#)#[#}#|#1#:#2#3#4#5#6#7#            ",
"              8#9#0#a#b#c#d#e#f#g#h#i#j#k#l#m#n#o#p#            ",
"                    q#r#s#t#u#v#w#x#y#z#A#B#C#D#E#              ",
"                        F#          G#    H#                    ",
"                                                                "};
